<?xml version="1.0" encoding="utf-8"?>
<!-- Generator: Adobe Illustrator 27.1.1, SVG Export Plug-In . SVG Version: 6.00 Build 0)  -->
<svg version="1.1" id="Layer_1" xmlns="http://www.w3.org/2000/svg" xmlns:xlink="http://www.w3.org/1999/xlink" x="0px" y="0px"
	 viewBox="0 0 1300 1000" style="enable-background:new 0 0 1300 1000;" xml:space="preserve">
<style type="text/css">
	.st0{fill:#0061B0;}
	.st1{fill:#838487;}
</style>
<g id="XMLID_823_">
	<g id="XMLID_780_">
		<path id="XMLID_782_" class="st0" d="M754.45,680.26c-143.36,0-260-116.63-260-259.99s116.63-260,260-260
			c79.49,0,150.73,35.9,198.46,92.29L988,213.98c-57.18-64.66-140.66-105.53-233.55-105.53c-171.94,0-311.82,139.88-311.82,311.82
			c0,171.94,139.88,311.82,311.82,311.82c78.7,0,150.64-29.37,205.57-77.65l-49.33-26.51C867.16,660.76,813.04,680.26,754.45,680.26
			z"/>
		<path id="XMLID_781_" class="st0" d="M754.45,748.5c-180.99,0-328.23-147.24-328.23-328.23c0-180.99,147.24-328.23,328.23-328.23
			c97.14,0,184.51,42.45,244.66,109.73l35.02-38.51C964.62,87.67,864.98,40.21,754.45,40.21c-209.56,0-380.06,170.5-380.06,380.06
			s170.5,380.06,380.06,380.06c104.97,0,200.12-42.78,268.97-111.81l-47.97-25.78C917.08,715.98,839.49,748.5,754.45,748.5z"/>
	</g>
	<g id="XMLID_774_">
		<g id="XMLID_778_">
			<rect id="XMLID_779_" x="169.03" y="40.21" class="st1" width="168.57" height="53.51"/>
		</g>
		<g id="XMLID_776_">
			<polygon id="XMLID_777_" class="st1" points="226.7,727.7 226.7,260.95 284.68,260.95 284.68,805.59 338.19,851.04 
				338.19,207.44 173.19,207.44 173.19,682.25 			"/>
		</g>
		<path id="XMLID_775_" class="st1" d="M62.4,179.79c1.59-0.45,3.39-0.85,4.89-1.16c1.85-0.38,7.92-0.61,7.92-0.61l25.13-0.01h53.08
			h184.19v-53.51H78.32c0.01,0.05,0.01,0.09,0.02,0.14c-40.4,1.47-72.83,34.71-72.83,75.46c0,41.69,33.91,75.6,75.6,75.6
			c35.62,0,65.48-24.79,73.45-58l1.5-10.26h-45.78l-5.78,10.26c-5.36,7.1-13.83,11.71-23.39,11.71c-16.16,0-29.31-13.15-29.31-29.31
			c0-6.01,1.82-11.58,4.94-16.23C57.29,183.04,60.55,180.31,62.4,179.79z"/>
	</g>
	<g id="XMLID_719_">
		<g id="XMLID_760_">
			<path id="XMLID_772_" class="st1" d="M591.31,422.5V294.86h24.65V422.5H591.31z"/>
			<path id="XMLID_770_" class="st1" d="M725.84,294.68h24.84V422.5h-15.43v0.18l-69.24-86.24v86.06h-24.83V294.86h20.13L725.84,374
				V294.68z"/>
			<path id="XMLID_768_" class="st1" d="M883.9,367.98c0,33-21.64,57.07-57.95,57.07c-33.68,0-57.76-19.51-57.76-55.61h24.46
				c0,21.88,10.91,33,33.3,33c22.58,0,33.11-15.14,33.11-34.46v-50.69h-39.7v-22.43c21.45,0,42.9,0,64.53,0V367.98z"/>
			<path id="XMLID_766_" class="st1" d="M1022.77,295.05v73.11c0,37.75-23.89,57.07-57,57.07c-31.61,0-58.51-18.6-58.51-57.07
				v-73.11h24.65v73.11c0,22.98,13.55,35.19,34.05,35.19c20.51,0,32.17-13.31,32.17-35.19v-73.11H1022.77z"/>
			<path id="XMLID_763_" class="st1" d="M1163.9,422.5h-29.54l-38.38-42.67h-23.89v42.67h-24.84V294.68
				c20.88,0,41.77,0.18,62.65,0.18c31.04,0.18,47.41,20.24,47.41,42.3c0,17.5-8.28,35.19-33.3,40.11l39.89,43.58V422.5z
				 M1072.09,317.29v40.84h37.81c15.8,0,22.58-10.21,22.58-20.42s-6.96-20.42-22.58-20.42H1072.09z"/>
			<path id="XMLID_761_" class="st1" d="M1229.58,347.56l34.99-52.69h29.91v1.1L1242,369.8v52.69h-24.83V369.8l-50.61-73.84v-1.1
				h29.54L1229.58,347.56z"/>
		</g>
		<g id="XMLID_720_">
			<path id="XMLID_732_" class="st0" d="M711.16,560.44c-13.55,12.94-31.04,18.96-50.04,18.96c-48.92,0-69.61-32.64-69.8-65.82
				c-0.19-33.37,22.2-67.28,69.8-67.28c17.87,0,34.81,6.57,48.35,19.51l-16.56,15.5c-8.65-8.2-20.32-12.03-31.79-12.03
				c-31.8,0-45.53,22.98-45.34,44.31c0.19,21.15,12.8,43.21,45.34,43.21c11.48,0,24.46-4.56,33.11-12.94L711.16,560.44z"/>
			<path id="XMLID_730_" class="st0" d="M748.05,448.85v105.39h67.73v22.25h-92.56V448.85H748.05z"/>
			<path id="XMLID_727_" class="st0" d="M926.8,552.42h-68.86l-11.29,24.07h-26.9l59.08-127.63h27.09L965,576.49H937.9L926.8,552.42
				z M892.37,475.65l-24.46,54.34h48.92L892.37,475.65z"/>
			<path id="XMLID_725_" class="st0" d="M974.43,576.49V448.85h24.65v127.63H974.43z"/>
			<path id="XMLID_723_" class="st0" d="M1137.17,484.04l-42.89,55.43h-4.89l-41.95-55.61v92.81h-24.84V449.04h28.6l41.2,54.88
				l41.2-54.88h28.41v127.63h-24.83V484.04z"/>
			<path id="XMLID_721_" class="st0" d="M1266.64,479.67c-4.51-7.29-16.93-14.22-31.23-14.22c-18.44,0-27.28,7.48-27.28,16.96
				c0,11.12,13.55,14.22,29.35,16.05c27.47,3.28,53.06,10.21,53.06,40.66c0,28.44-25.96,40.66-55.31,40.66
				c-26.9,0-47.6-8.03-57.38-31.36l20.69-10.39c5.83,14.04,21.07,20.24,37.07,20.24c15.62,0,30.29-5.29,30.29-19.15
				c0-12.03-12.98-16.96-30.48-18.78c-26.9-3.1-51.74-10.03-51.74-38.65c0-26.26,26.72-37.01,50.98-37.2
				c20.51,0,41.77,5.65,51.74,25.34L1266.64,479.67z"/>
		</g>
	</g>
	<g id="XMLID_960_">
		<path id="XMLID_961_" class="st0" d="M84.95,908.67c-3.65-3.49-9.08-5.43-13.82-5.43c-11.64,0-18.71,8.85-18.71,20.03
			c0,8.93,5.2,18.16,18.71,18.16c4.27,0,8-0.93,12.26-4.35v-9.62H69.51v-9.16h23.29v22.9c-5.36,6.13-12.11,9.78-21.66,9.78
			c-20.41,0-28.72-13.43-28.72-27.71c0-15.29,9.55-29.42,28.72-29.42c7.3,0,14.59,2.79,20.18,8.31L84.95,908.67z"/>
		<path id="XMLID_963_" class="st0" d="M141.7,949.73h-40.67c0-18.09,0-36.25,0-54.33h40.67v9.94h-30.51v12.5h29.42v9.55h-29.42
			v12.26h30.51V949.73z"/>
		<path id="XMLID_965_" class="st0" d="M166.85,904.71h-17.23v-9.31c15.68,0,28.95,0,44.71,0v9.31h-17.23v45.02h-10.25V904.71z"/>
		<path id="XMLID_967_" class="st0" d="M230.27,904.71h-17.23v-9.31c15.68,0,28.95,0,44.71,0v9.31h-17.23v45.02h-10.25V904.71z"/>
		<path id="XMLID_969_" class="st0" d="M300.98,949.81v-21.97h-26.7v21.97h-10.25v-54.33h10.25v22.9h26.7v-22.9h10.17v54.33H300.98z
			"/>
		<path id="XMLID_971_" class="st0" d="M361.3,949.73h-40.67c0-18.09,0-36.25,0-54.33h40.67v9.94h-30.51v12.5h29.42v9.55h-29.42
			v12.26h30.51V949.73z"/>
		<path id="XMLID_973_" class="st0" d="M430.46,926.52c0,14.05-8.93,24.3-23.91,24.3c-13.89,0-23.83-8.31-23.83-23.67h10.09
			c0,9.31,4.5,14.05,13.74,14.05c9.31,0,13.66-6.44,13.66-14.67v-21.58h-16.38v-9.55c8.85,0,17.7,0,26.62,0V926.52z"/>
		<path id="XMLID_975_" class="st0" d="M487.75,895.47v31.13c0,16.07-9.86,24.29-23.52,24.29c-13.04,0-24.14-7.92-24.14-24.29
			v-31.13h10.17v31.13c0,9.78,5.59,14.98,14.05,14.98c8.46,0,13.27-5.67,13.27-14.98v-31.13H487.75z"/>
		<path id="XMLID_977_" class="st0" d="M531.3,908.51c-1.86-3.11-6.99-6.05-12.89-6.05c-7.61,0-11.25,3.18-11.25,7.22
			c0,4.74,5.59,6.05,12.11,6.83c11.33,1.4,21.89,4.35,21.89,17.31c0,12.11-10.71,17.31-22.82,17.31c-11.1,0-19.64-3.42-23.67-13.35
			l8.54-4.42c2.41,5.98,8.69,8.62,15.29,8.62c6.44,0,12.5-2.25,12.5-8.15c0-5.12-5.36-7.22-12.57-8
			c-11.1-1.32-21.35-4.27-21.35-16.46c0-11.18,11.02-15.76,21.04-15.83c8.46,0,17.23,2.41,21.35,10.79L531.3,908.51z"/>
		<path id="XMLID_979_" class="st0" d="M563.13,904.71h-17.23v-9.31c15.68,0,28.95,0,44.71,0v9.31h-17.23v45.02h-10.25V904.71z"/>
		<path id="XMLID_981_" class="st0" d="M596.89,949.73V895.4h10.17v54.33H596.89z"/>
		<path id="XMLID_983_" class="st0" d="M664.58,942.9c-5.59,5.51-12.81,8.07-20.65,8.07c-20.18,0-28.72-13.89-28.8-28.02
			c-0.08-14.21,9.16-28.64,28.8-28.64c7.37,0,14.36,2.79,19.95,8.31l-6.83,6.6c-3.57-3.49-8.38-5.12-13.12-5.12
			c-13.12,0-18.78,9.78-18.71,18.86c0.08,9,5.28,18.4,18.71,18.4c4.74,0,10.09-1.94,13.66-5.51L664.58,942.9z"/>
		<path id="XMLID_985_" class="st0" d="M710.84,949.73h-40.67c0-18.09,0-36.25,0-54.33h40.67v9.94h-30.51v12.5h29.42v9.55h-29.42
			v12.26h30.51V949.73z"/>
		<path id="XMLID_987_" class="st0" d="M757.34,917.83l14.44-22.43h12.34v0.47l-21.66,31.44v22.43h-10.25V927.3l-20.88-31.44v-0.47
			h12.19L757.34,917.83z"/>
		<path id="XMLID_989_" class="st0" d="M842.03,922.87c-0.16,14.05-8.77,28.1-27.87,28.1s-27.94-13.74-27.94-28.02
			s9.16-28.64,27.94-28.64C832.87,894.31,842.18,908.67,842.03,922.87z M796.31,923.11c0.23,8.93,5.05,18.47,17.85,18.47
			s17.62-9.62,17.78-18.55c0.16-9.16-4.97-19.41-17.78-19.41S796.08,913.95,796.31,923.11z"/>
		<path id="XMLID_992_" class="st0" d="M897.22,895.47v31.13c0,16.07-9.86,24.29-23.52,24.29c-13.04,0-24.14-7.92-24.14-24.29
			v-31.13h10.17v31.13c0,9.78,5.59,14.98,14.05,14.98c8.46,0,13.27-5.67,13.27-14.98v-31.13H897.22z"/>
		<path id="XMLID_994_" class="st0" d="M970.73,922.1c0.23,13.74-8.15,27.63-27.17,27.63c-6.68,0-14.67,0-21.35,0V895.4
			c6.68,0,14.67,0,21.35,0C962.19,895.4,970.5,908.67,970.73,922.1z M932.39,939.87h11.18c12.34,0,17.23-9,17-17.85
			c-0.23-8.46-5.2-16.92-17-16.92h-11.18V939.87z"/>
		<path id="XMLID_997_" class="st0" d="M1018.01,949.73h-40.67c0-18.09,0-36.25,0-54.33h40.67v9.94H987.5v12.5h29.42v9.55H987.5
			v12.26h30.51V949.73z"/>
		<path id="XMLID_999_" class="st0" d="M1061.09,908.51c-1.86-3.11-6.99-6.05-12.89-6.05c-7.61,0-11.25,3.18-11.25,7.22
			c0,4.74,5.59,6.05,12.11,6.83c11.33,1.4,21.89,4.35,21.89,17.31c0,12.11-10.71,17.31-22.82,17.31c-11.1,0-19.64-3.42-23.67-13.35
			l8.54-4.42c2.41,5.98,8.69,8.62,15.29,8.62c6.44,0,12.5-2.25,12.5-8.15c0-5.12-5.36-7.22-12.57-8
			c-11.1-1.32-21.35-4.27-21.35-16.46c0-11.18,11.02-15.76,21.04-15.83c8.46,0,17.23,2.41,21.35,10.79L1061.09,908.51z"/>
		<path id="XMLID_1001_" class="st0" d="M1119.38,949.73h-40.67c0-18.09,0-36.25,0-54.33h40.67v9.94h-30.51v12.5h29.42v9.55h-29.42
			v12.26h30.51V949.73z"/>
		<path id="XMLID_1003_" class="st0" d="M1175.51,949.73h-12.19l-15.83-18.16h-9.86v18.16h-10.25v-54.41
			c8.62,0,17.23,0.08,25.85,0.08c12.81,0.08,19.56,8.62,19.56,18.01c0,7.45-3.42,14.98-13.74,17.08l16.46,18.55V949.73z
			 M1137.63,904.94v17.39h15.6c6.52,0,9.31-4.35,9.31-8.69s-2.87-8.69-9.31-8.69H1137.63z"/>
		<path id="XMLID_1006_" class="st0" d="M1209.2,949.96h-10.63l-22.59-54.57h11.49l16.38,42.3l16.46-42.3h11.49L1209.2,949.96z"/>
		<path id="XMLID_1008_" class="st0" d="M1278.59,949.73h-40.67c0-18.09,0-36.25,0-54.33h40.67v9.94h-30.51v12.5h29.42v9.55h-29.42
			v12.26h30.51V949.73z"/>
	</g>
</g>
</svg>
