<?xml version="1.0" encoding="UTF-8"?>
<svg id="Layer_1" data-name="Layer 1" xmlns="http://www.w3.org/2000/svg" viewBox="0 0 1288.97 810.83">
  <defs>
    <style>
      .cls-1 {
        fill: #0061b0;
      }

      .cls-2 {
        fill: #838487;
      }
    </style>
  </defs>
  <g>
    <path class="cls-1" d="m748.94,640.05c-143.36,0-260-116.63-260-259.99s116.63-260,260-260c79.49,0,150.73,35.9,198.46,92.29l35.09-38.58c-57.18-64.66-140.66-105.53-233.55-105.53-171.94,0-311.82,139.88-311.82,311.82s139.88,311.82,311.82,311.82c78.7,0,150.64-29.37,205.57-77.65l-49.33-26.51c-43.53,32.83-97.65,52.33-156.24,52.33Z"/>
    <path class="cls-1" d="m748.94,708.29c-180.99,0-328.23-147.24-328.23-328.23S567.95,51.83,748.94,51.83c97.14,0,184.51,42.45,244.66,109.73l35.02-38.51C959.11,47.46,859.47,0,748.94,0c-209.56,0-380.06,170.5-380.06,380.06s170.5,380.06,380.06,380.06c104.97,0,200.12-42.78,268.97-111.81l-47.97-25.78c-58.37,53.24-135.96,85.76-221,85.76Z"/>
  </g>
  <g>
    <rect class="cls-2" x="163.52" width="168.57" height="53.51"/>
    <polygon class="cls-2" points="221.19 687.49 221.19 220.74 279.17 220.74 279.17 765.38 332.68 810.83 332.68 167.23 167.68 167.23 167.68 642.04 221.19 687.49"/>
    <path class="cls-2" d="m56.89,139.58c1.59-.45,3.39-.85,4.89-1.16,1.85-.38,7.92-.61,7.92-.61h25.13s53.08,0,53.08,0h184.19v-53.51H72.81c.01.05.01.09.02.14C32.43,85.9,0,119.14,0,159.89s33.91,75.6,75.6,75.6c35.62,0,65.48-24.79,73.45-58l1.5-10.26h-45.78l-5.78,10.26c-5.36,7.1-13.83,11.71-23.39,11.71-16.16,0-29.31-13.15-29.31-29.31,0-6.01,1.82-11.58,4.94-16.23.55-.83,3.81-3.56,5.66-4.08Z"/>
  </g>
  <g>
    <g>
      <path class="cls-2" d="m585.8,382.29v-127.64h24.65v127.64h-24.65Z"/>
      <path class="cls-2" d="m720.33,254.47h24.84v127.82h-15.43v.18l-69.24-86.24v86.06h-24.83v-127.64h20.13l64.53,79.14v-79.32Z"/>
      <path class="cls-2" d="m878.39,327.77c0,33-21.64,57.07-57.95,57.07-33.68,0-57.76-19.51-57.76-55.61h24.46c0,21.88,10.91,33,33.3,33s33.11-15.14,33.11-34.46v-50.69h-39.7v-22.43h64.53v73.12h.01Z"/>
      <path class="cls-2" d="m1017.26,254.84v73.11c0,37.75-23.89,57.07-57,57.07s-58.51-18.6-58.51-57.07v-73.11h24.65v73.11c0,22.98,13.55,35.19,34.05,35.19s32.17-13.31,32.17-35.19v-73.11h24.64Z"/>
      <path class="cls-2" d="m1158.39,382.29h-29.54l-38.38-42.67h-23.89v42.67h-24.84v-127.82c20.88,0,41.77.18,62.65.18,31.04.18,47.41,20.24,47.41,42.3,0,17.5-8.28,35.19-33.3,40.11l39.89,43.58v1.65Zm-91.81-105.21v40.84h37.81c15.8,0,22.58-10.21,22.58-20.42s-6.96-20.42-22.58-20.42h-37.81Z"/>
      <path class="cls-2" d="m1224.07,307.35l34.99-52.69h29.91v1.1l-52.48,73.83v52.69h-24.83v-52.69l-50.61-73.84v-1.1h29.54l33.48,52.7Z"/>
    </g>
    <g>
      <path class="cls-1" d="m705.65,520.23c-13.55,12.94-31.04,18.96-50.04,18.96-48.92,0-69.61-32.64-69.8-65.82-.19-33.37,22.2-67.28,69.8-67.28,17.87,0,34.81,6.57,48.35,19.51l-16.56,15.5c-8.65-8.2-20.32-12.03-31.79-12.03-31.8,0-45.53,22.98-45.34,44.31.19,21.15,12.8,43.21,45.34,43.21,11.48,0,24.46-4.56,33.11-12.94l16.93,16.58Z"/>
      <path class="cls-1" d="m742.54,408.64v105.39h67.73v22.25h-92.56v-127.64h24.83Z"/>
      <path class="cls-1" d="m921.29,512.21h-68.86l-11.29,24.07h-26.9l59.08-127.63h27.09l59.08,127.63h-27.1l-11.1-24.07Zm-34.43-76.77l-24.46,54.34h48.92l-24.46-54.34Z"/>
      <path class="cls-1" d="m968.92,536.28v-127.64h24.65v127.63h-24.65Z"/>
      <path class="cls-1" d="m1131.66,443.83l-42.89,55.43h-4.89l-41.95-55.61v92.81h-24.84v-127.63h28.6l41.2,54.88,41.2-54.88h28.41v127.63h-24.83v-92.63h-.01Z"/>
      <path class="cls-1" d="m1261.13,439.46c-4.51-7.29-16.93-14.22-31.23-14.22-18.44,0-27.28,7.48-27.28,16.96,0,11.12,13.55,14.22,29.35,16.05,27.47,3.28,53.06,10.21,53.06,40.66,0,28.44-25.96,40.66-55.31,40.66-26.9,0-47.6-8.03-57.38-31.36l20.69-10.39c5.83,14.04,21.07,20.24,37.07,20.24s30.29-5.29,30.29-19.15c0-12.03-12.98-16.96-30.48-18.78-26.9-3.1-51.74-10.03-51.74-38.65,0-26.26,26.72-37.01,50.98-37.2,20.51,0,41.77,5.65,51.74,25.34l-19.76,9.84Z"/>
    </g>
  </g>
</svg>
